<?xml version="1.0" standalone="no"?>
<!DOCTYPE svg PUBLIC "-//W3C//DTD SVG 20010904//EN"
 "http://www.w3.org/TR/2001/REC-SVG-20010904/DTD/svg10.dtd">
<svg version="1.0" xmlns="http://www.w3.org/2000/svg"
 width="300.000000pt" height="90.000000pt" viewBox="0 0 300.000000 90.000000"
 preserveAspectRatio="xMidYMid meet">
<metadata>
Created by potrace 1.10, written by Peter Selinger 2001-2011
</metadata>
<g transform="translate(0.000000,90.000000) scale(0.100000,-0.100000)"
fill="#000000" stroke="none">
<path d="M320 813 c-1 -5 0 -82 0 -173 1 -192 7 -210 69 -210 31 0 40 5 49 25
15 33 15 35 -4 35 -8 0 -13 -4 -10 -8 8 -14 -11 -35 -27 -29 -19 7 -32 143
-25 268 5 83 4 88 -16 93 -28 8 -36 7 -36 -1z"/>
<path d="M472 642 c2 -133 7 -183 17 -195 16 -20 81 -23 99 -5 15 15 16 48 2
48 -5 0 -10 -7 -10 -15 0 -21 -30 -31 -41 -14 -5 8 -9 89 -9 180 0 143 -2 168
-16 173 -46 18 -46 17 -42 -172z"/>
<path d="M1325 795 c-135 -48 -150 -279 -22 -350 123 -70 257 19 257 170 0 90
-41 153 -117 181 -48 17 -68 17 -118 -1z m89 -36 c53 -42 104 -184 87 -245 -7
-28 -61 -74 -86 -74 -7 0 -27 10 -46 23 -67 45 -122 215 -89 276 23 43 92 53
134 20z"/>
<path d="M2300 786 c0 -22 4 -26 31 -26 26 0 30 3 27 23 -2 16 -11 23 -30 25
-24 3 -28 0 -28 -22z"/>
<path d="M34 616 l-1 -183 129 -2 c98 -1 128 1 128 11 0 22 -14 35 -34 32 -10
-1 -50 -4 -88 -6 l-70 -3 -5 74 -5 73 86 -3 c71 -3 86 -1 86 11 0 12 -15 14
-85 11 l-85 -3 4 73 c2 41 8 73 13 73 4 -1 45 -5 91 -9 79 -7 82 -6 82 14 0
20 -5 21 -123 21 l-123 0 0 -184z"/>
<path d="M2175 770 c-3 -5 -15 -10 -27 -10 -17 0 -20 -5 -16 -30 4 -24 1 -30
-14 -30 -10 0 -18 -7 -18 -15 0 -9 6 -12 15 -9 17 7 16 12 19 -119 3 -108 11
-124 61 -127 48 -3 54 -1 66 21 8 16 8 24 0 32 -9 9 -13 6 -17 -11 -4 -12 -14
-22 -24 -22 -14 0 -18 12 -23 68 -4 37 -7 89 -7 115 l0 49 37 -4 c22 -2 38 2
41 10 2 8 -9 12 -38 12 l-43 0 6 35 c6 34 -5 55 -18 35z"/>
<path d="M673 690 c-63 -38 -82 -128 -42 -200 48 -86 176 -90 221 -7 12 22 11
23 -25 32 -25 7 -27 5 -27 -24 0 -64 -90 -68 -116 -6 -24 59 -22 62 74 75 48
7 91 16 96 21 14 12 -14 77 -45 104 -37 31 -91 33 -136 5z m106 -14 c7 -8 11
-32 9 -53 -3 -34 -6 -38 -38 -45 -19 -3 -45 -9 -57 -13 -28 -9 -30 9 -8 63 24
58 68 80 94 48z"/>
<path d="M1008 683 c-14 -16 -28 -36 -31 -45 -4 -10 -11 -18 -16 -18 -14 0
-31 34 -31 59 0 12 -4 21 -8 21 -5 0 -7 -60 -5 -132 l3 -133 30 -3 29 -3 -5
68 c-7 87 12 152 48 173 24 13 29 13 47 -4 19 -17 21 -31 21 -128 l0 -108 35
0 35 0 0 90 c0 100 -14 148 -51 174 -35 24 -72 20 -101 -11z"/>
<path d="M1889 687 c-39 -26 -48 -52 -22 -60 10 -2 26 -8 36 -12 15 -6 17 -4
11 19 -8 34 10 56 46 56 34 0 49 -17 52 -60 3 -33 1 -34 -39 -41 -105 -19
-167 -95 -115 -142 44 -39 119 -15 149 48 9 19 20 35 25 35 4 0 10 -23 14 -50
12 -87 26 -50 26 65 -1 110 -1 110 -32 138 -40 35 -102 37 -151 4z m131 -111
c0 -1 -5 -18 -11 -37 -23 -69 -77 -101 -99 -60 -14 28 5 66 44 85 28 14 66 21
66 12z"/>
<path d="M2480 698 c-63 -34 -91 -139 -55 -208 37 -71 144 -85 202 -28 58 59
54 175 -8 219 -37 26 -105 35 -139 17z m83 -36 c10 -9 27 -46 38 -83 18 -59
19 -72 7 -96 -15 -32 -59 -43 -85 -21 -26 21 -63 110 -63 151 0 69 52 94 103
49z"/>
<path d="M2801 694 c-13 -9 -30 -32 -37 -51 -17 -41 -29 -36 -45 18 -7 22 -15
36 -18 32 -3 -4 -5 -65 -3 -135 l3 -128 29 0 28 0 4 93 c4 108 20 149 60 154
45 6 61 -39 56 -154 l-4 -93 33 0 33 0 0 84 c0 107 -7 140 -36 171 -27 29 -68
33 -103 9z"/>
<path d="M1601 661 c27 -56 70 -171 76 -203 4 -22 10 -26 33 -26 24 1 31 8 45
47 9 25 32 86 50 134 32 84 33 88 13 85 -16 -2 -26 -22 -52 -105 -18 -56 -35
-105 -39 -109 -3 -3 -9 7 -12 22 -4 16 -16 61 -27 99 -12 39 -22 76 -24 83 -2
7 -20 12 -43 12 l-39 0 19 -39z"/>
<path d="M2297 568 l2 -133 31 -3 30 -3 0 135 0 136 -32 0 -33 0 2 -132z"/>
<path d="M343 224 c-21 -21 -24 -32 -19 -62 3 -20 13 -43 23 -49 21 -16 65
-17 81 -1 17 17 15 38 -3 38 -8 0 -12 -6 -9 -14 7 -19 -33 -31 -51 -16 -15 13
-20 65 -9 94 8 21 44 20 60 -1 7 -10 16 -14 21 -10 9 10 -33 47 -54 47 -7 0
-25 -12 -40 -26z"/>
<path d="M659 228 c-9 -15 -12 -40 -9 -71 6 -56 27 -60 22 -4 -3 28 1 39 14
44 16 6 16 7 1 12 -12 4 -14 10 -7 21 9 13 11 13 20 0 8 -13 10 -12 10 3 0 25
-35 21 -51 -5z"/>
<path d="M1123 243 c-21 -4 -23 -10 -23 -74 l0 -69 38 0 c47 0 82 32 82 77 0
46 -44 76 -97 66z m55 -25 c16 -16 15 -70 -1 -92 -7 -10 -22 -17 -33 -15 -15
3 -20 14 -22 48 -2 24 -1 50 2 57 7 17 38 18 54 2z"/>
<path d="M1594 184 c2 -36 8 -70 14 -76 12 -12 32 -3 32 15 0 7 -4 6 -10 -3
-7 -10 -10 7 -10 58 0 57 -3 72 -15 72 -12 0 -14 -13 -11 -66z"/>
<path d="M2120 180 c0 -55 3 -72 16 -77 8 -3 21 0 27 6 9 10 9 12 -3 9 -12 -2
-16 11 -18 65 -4 89 -22 87 -22 -3z"/>
<path d="M2177 183 c6 -74 16 -95 36 -74 10 11 10 13 0 7 -10 -5 -13 10 -13
63 0 54 -3 71 -14 71 -11 0 -13 -14 -9 -67z"/>
<path d="M737 232 c-13 -20 -17 -105 -5 -119 13 -16 38 -17 38 -2 0 5 -4 7
-10 4 -6 -4 -10 11 -10 39 0 34 4 46 18 49 15 4 15 5 0 6 -9 0 -18 9 -20 19
-3 12 -6 14 -11 4z"/>
<path d="M1435 222 c-15 -26 -7 -112 11 -119 9 -3 21 0 27 6 9 10 9 12 -3 9
-11 -2 -16 8 -18 39 -2 33 1 42 15 46 17 4 17 5 0 6 -10 0 -16 5 -12 10 3 5 2
12 -3 15 -4 2 -12 -3 -17 -12z"/>
<path d="M1693 173 l2 -68 48 -3 c28 -2 47 1 47 7 0 6 -16 11 -35 11 l-35 0 0
56 0 56 35 -6 c22 -4 35 -3 35 4 0 5 -22 10 -50 10 l-50 0 3 -67z"/>
<path d="M485 199 c-4 -6 -13 -8 -20 -5 -9 3 -12 -7 -10 -37 3 -52 19 -64 23
-17 5 58 11 68 28 46 15 -22 30 -16 21 9 -7 17 -33 20 -42 4z"/>
<path d="M551 196 c-8 -10 -9 -16 -1 -21 5 -3 13 1 16 9 3 9 12 16 20 16 24 0
15 -24 -16 -42 -17 -9 -30 -24 -30 -33 0 -23 29 -30 47 -12 15 15 14 15 -7 10
-20 -5 -21 -4 -11 16 15 28 29 27 37 -4 3 -14 10 -25 14 -25 10 0 6 72 -4 89
-10 16 -51 14 -65 -3z"/>
<path d="M790 160 c0 -27 5 -50 10 -50 6 0 10 23 10 50 0 28 -4 50 -10 50 -5
0 -10 -22 -10 -50z"/>
<path d="M870 201 c0 -6 7 -11 15 -11 11 0 15 -11 15 -39 0 -36 10 -58 22 -46
2 2 2 26 -2 52 -4 40 -9 49 -27 51 -13 2 -23 -1 -23 -7z"/>
<path d="M960 195 c-29 -35 -7 -95 35 -95 27 0 49 24 41 45 -8 23 -23 18 -22
-7 1 -17 -5 -23 -19 -23 -16 0 -21 8 -23 38 -4 43 22 63 43 34 14 -20 26 -22
23 -4 -6 29 -57 37 -78 12z"/>
<path d="M1240 155 c0 -42 3 -55 15 -55 12 0 15 13 15 55 0 42 -3 55 -15 55
-12 0 -15 -13 -15 -55z"/>
<path d="M1292 198 c-17 -17 -15 -64 4 -82 31 -32 86 -7 68 31 -6 15 -8 13
-12 -9 -2 -20 -9 -28 -22 -28 -21 0 -35 34 -28 67 4 23 48 31 48 8 0 -9 5 -13
10 -10 16 10 -8 35 -34 35 -12 0 -27 -5 -34 -12z"/>
<path d="M1382 158 c4 -74 28 -77 28 -4 0 44 -3 56 -16 56 -12 0 -14 -10 -12
-52z"/>
<path d="M1505 199 c-4 -6 -4 -13 0 -17 3 -3 10 0 15 7 8 14 40 9 40 -7 0 -5
-15 -15 -32 -23 -21 -9 -33 -21 -33 -34 0 -22 31 -33 48 -16 8 8 6 11 -6 11
-9 0 -17 7 -17 15 0 8 2 15 4 15 2 0 12 3 22 7 14 5 16 3 11 -11 -4 -9 -3 -14
2 -11 5 3 12 -3 14 -12 3 -10 5 3 6 28 1 34 -3 49 -15 53 -24 9 -52 7 -59 -5z"/>
<path d="M1816 180 c17 -28 17 -30 -1 -50 -10 -11 -16 -23 -12 -26 9 -9 27 5
27 22 0 21 15 17 33 -8 8 -13 18 -20 23 -16 4 5 -1 17 -11 28 -18 20 -18 22
-1 50 9 17 13 30 7 30 -5 0 -13 -9 -16 -20 -3 -11 -9 -20 -13 -20 -4 0 -13 9
-20 20 -20 32 -35 23 -16 -10z"/>
<path d="M1917 192 c-10 -10 -17 -28 -17 -39 0 -23 29 -53 52 -53 19 0 44 28
34 38 -4 4 -12 -1 -17 -11 -14 -24 -27 -21 -40 7 -8 17 -8 29 0 45 13 24 41
28 41 6 0 -8 5 -15 10 -15 14 0 13 13 -2 28 -17 17 -42 15 -61 -6z"/>
<path d="M2028 199 c-22 -13 -23 -62 -2 -83 18 -19 45 -21 62 -4 20 20 13 32
-8 13 -26 -23 -50 -13 -50 23 0 42 31 69 44 37 4 -10 -2 -19 -17 -26 -19 -8
-18 -9 8 -3 38 7 42 11 29 32 -13 21 -43 26 -66 11z"/>
<path d="M2234 184 c-16 -24 -16 -29 -3 -53 17 -30 60 -39 79 -17 15 19 7 20
-20 4 -17 -11 -22 -10 -30 2 -5 8 -10 22 -10 31 0 23 25 53 38 45 19 -11 14
-26 -10 -36 -21 -8 -21 -9 -3 -9 34 -1 52 16 39 36 -18 30 -60 28 -80 -3z"/>
<path d="M2340 158 c0 -45 3 -58 15 -58 20 0 20 48 0 86 -15 29 -15 29 -15
-28z"/>
<path d="M2375 200 c-3 -5 3 -10 14 -10 18 0 21 -6 21 -45 0 -25 5 -45 10 -45
14 0 12 84 -2 98 -15 15 -35 16 -43 2z"/>
<path d="M2466 194 c-32 -31 -10 -94 33 -94 21 0 47 27 37 37 -3 4 -13 -2 -20
-13 -11 -14 -18 -16 -26 -8 -17 17 -20 51 -6 70 13 17 42 11 31 -7 -4 -5 1 -9
9 -9 19 0 21 11 4 28 -17 17 -44 15 -62 -4z"/>
<path d="M2572 198 c-19 -19 -15 -76 7 -88 29 -15 58 -12 65 6 10 26 7 28 -14
9 -10 -9 -26 -15 -35 -12 -28 11 -13 87 17 87 16 0 8 -39 -9 -43 -15 -4 -15
-5 2 -6 33 -1 52 16 39 36 -13 22 -55 28 -72 11z"/>
<path d="M830 152 c0 -40 4 -52 15 -52 20 0 20 58 0 84 -14 18 -15 16 -15 -32z"/>
</g>
</svg>
